# xmcd CD database file
#
# Track frame offsets:
#	150
#	19953
#	60370
#	111849
#	134104
#	171827
#	239337
#
# Disc length: 3666 seconds
#
# Revision: 0
# Processed by: cddbd v1.5.2PL0 Copyright (c) Steve Scherf et al.
# Submitted via: jetAudio 7
#
DISCID=5f0e5007
DTITLE=Cheng Gong-liang - ¬îÅ£
DYEAR=1994
DGENRE=Classical
TTITLE0=¾Kº®°Û±ß
TTITLE1=¤å¤ý¾Þ
TTITLE2=Ãt´ð¤ô¶³
TTITLE3=¨}®d¤Þ
TTITLE4=¬y¤ô
TTITLE5=´¶±g©G
TTITLE6=èQ¥@¾Þ
EXTD=YEAR: 1994
EXTT0=
EXTT1=
EXTT2=
EXTT3=
EXTT4=
EXTT5=
EXTT6=
PLAYORDER=
